<?xml version="1.0" encoding="utf-8"?>
<!-- Generator: Adobe Illustrator 19.0.0, SVG Export Plug-In . SVG Version: 6.00 Build 0)  -->
<svg version="1.1" id="Layer_1" xmlns="http://www.w3.org/2000/svg" xmlns:xlink="http://www.w3.org/1999/xlink" x="0px" y="0px"
	 viewBox="0 0 180 200" style="enable-background:new 0 0 180 200;" xml:space="preserve">
<style type="text/css">
	.st0{fill:#FFFFFF;}
</style>
<g>
	<circle id="XMLID_3_" class="st0" cx="90" cy="90.2" r="22"/>
	<path id="XMLID_2_" class="st0" d="M152.7,48.7C129.8,14,83.1,4.5,48.5,27.5C13.9,50.4,4.4,97.1,27.3,131.7
		c0.8,1.2,1.6,2.3,2.4,3.4c0.1-0.1,0.1-0.1,0.2-0.2c18.7-10.2,14.5-27.2,14.1-28.4c-6.1-17.2-2.3-37.1,11.5-50.9
		c19.1-19.1,50-19.1,69.1,0c19.1,19.1,19.1,50,0,69.1c-7.6,7.6-17.2,12.2-27.1,13.7l0,0c0,0-18.4,3.8-18.4,26.1
		c17.7,2.6,36.4-1,52.5-11.7C166.1,129.9,175.6,83.3,152.7,48.7z"/>
	<path id="XMLID_1_" class="st0" d="M61.9,118.2l-28.3,28.3c-2.5,2.5-2.5,6.6,0,9.1L61.9,184c2.2,2.2,6.1,0.7,6.1-2.5v-60.7
		C68,117.6,64.2,116,61.9,118.2z"/>
</g>
</svg>
